<?xml version="1.0" standalone="no"?><!DOCTYPE svg PUBLIC "-//W3C//DTD SVG 1.1//EN" "http://www.w3.org/Graphics/SVG/1.1/DTD/svg11.dtd"><svg t="1591025565990" class="icon" viewBox="0 0 1024 1024" version="1.1" xmlns="http://www.w3.org/2000/svg" p-id="1201" width="32" height="32" xmlns:xlink="http://www.w3.org/1999/xlink"><defs><style type="text/css"></style></defs><path d="M877.568 813.568c62.976-79.872 100.352-180.224 100.352-289.792 0-259.072-210.432-469.504-469.504-469.504S38.912 264.704 38.912 523.776c0 109.568 37.888 209.92 100.352 289.792 31.744 40.448 70.144 75.776 113.664 103.936l4.608 3.072c12.288 7.68 24.576 14.848 37.376 21.504 3.584 2.048 7.68 3.584 11.264 5.632 11.264 5.12 22.016 10.24 33.792 14.336 5.12 2.048 9.728 3.584 14.848 5.632 10.752 3.584 22.016 7.168 32.768 9.728 5.632 1.536 10.752 3.072 16.384 4.096 11.776 2.56 23.552 4.608 35.328 6.144 5.12 0.512 10.24 1.536 15.36 2.56 16.896 2.048 34.304 3.072 52.224 3.072 17.408 0 34.816-1.024 52.224-3.072 5.12-0.512 10.24-1.536 15.36-2.56 11.776-1.536 23.552-3.584 35.328-6.144 5.632-1.024 11.264-3.072 16.384-4.096 11.264-3.072 22.016-6.144 32.768-9.728 5.12-1.536 9.728-3.584 14.848-5.632 11.264-4.096 22.528-9.216 33.792-14.336 3.584-2.048 7.68-3.584 11.264-5.632 12.8-6.656 25.6-13.824 37.376-21.504l4.608-3.072c46.08-28.16 84.48-63.488 116.736-103.936M97.792 523.776c0-226.304 184.32-410.624 410.624-410.624s410.624 184.32 410.624 410.624c0 87.552-27.648 168.448-74.24 235.008-74.24-106.496-196.608-176.64-336.384-176.64s-262.144 70.144-336.384 176.64c-46.592-66.56-74.24-147.456-74.24-235.008m706.56 284.672c-6.656 7.168-14.336 13.824-21.504 20.48-3.072 2.56-6.144 5.632-9.216 8.704-6.144 5.632-13.312 10.24-19.968 15.36-4.608 3.072-8.704 6.656-13.312 9.728l-16.896 10.752c-6.144 3.584-11.776 7.68-17.92 10.752-4.608 2.56-9.728 4.608-14.336 7.168-7.168 3.584-14.848 7.68-22.016 10.752l-12.288 4.608c-8.704 3.072-16.896 6.656-25.6 9.216l-12.288 3.072c-8.704 2.56-17.92 5.12-27.136 7.168-6.656 1.536-13.312 2.048-19.968 3.072-7.168 1.024-13.824 2.56-20.992 3.072-13.824 1.536-28.16 2.048-41.984 2.048-14.336 0-28.16-0.512-41.984-2.048-7.168-0.512-13.824-2.048-20.992-3.072-6.656-1.024-13.312-1.536-19.968-3.072-9.216-2.048-17.92-4.608-27.136-7.168l-12.288-3.072c-8.704-2.56-17.408-6.144-25.6-9.216l-12.288-4.608c-7.68-3.072-14.848-7.168-22.016-10.752-4.608-2.56-9.728-4.608-14.336-7.168-6.144-3.584-11.776-7.168-17.92-10.752-5.632-3.584-11.776-7.168-16.896-10.752-4.608-3.072-8.704-6.656-13.312-9.728-6.656-5.12-13.312-9.728-19.968-15.36-3.072-2.56-6.144-5.632-9.216-8.704-7.168-6.656-14.336-13.312-21.504-20.48l-2.048-2.048c64-102.4 175.104-164.864 297.472-164.864 122.88 0 233.472 62.464 297.472 164.864-1.024 0.512-1.536 1.024-2.048 2.048m-119.808-460.8c0-97.28-78.848-176.128-176.128-176.128S332.288 250.368 332.288 347.648s78.848 176.128 176.128 176.128 176.128-78.848 176.128-176.128m-176.128 117.76c-64.512 0-117.248-52.736-117.248-117.248s52.736-117.76 117.248-117.76 117.248 52.736 117.248 117.248-52.224 117.76-117.248 117.76" p-id="1202"></path></svg>