<?xml version="1.0" standalone="no"?><!DOCTYPE svg PUBLIC "-//W3C//DTD SVG 1.1//EN" "http://www.w3.org/Graphics/SVG/1.1/DTD/svg11.dtd"><svg t="1591025698217" class="icon" viewBox="0 0 1024 1024" version="1.1" xmlns="http://www.w3.org/2000/svg" p-id="1469" xmlns:xlink="http://www.w3.org/1999/xlink" width="32" height="32"><defs><style type="text/css"></style></defs><path d="M689.152 855.04a55.296 55.296 0 1 0 110.592 0 55.296 55.296 0 1 0-110.592 0Z" p-id="1470"></path><path d="M302.08 855.04a55.296 55.296 0 1 0 110.592 0 55.296 55.296 0 1 0-110.592 0Z" p-id="1471"></path><path d="M245.248 248.32h621.568c5.12 0 9.728 0.512 14.848 1.536 45.056 8.192 75.264 51.2 67.072 96.256l-59.904 331.264c-7.168 39.424-41.472 68.096-81.408 68.096h-486.4c-41.984 0-77.312-31.744-82.432-73.216L185.856 217.088c-1.536-13.824-13.312-24.576-27.648-24.576h-76.8c-15.36 0-27.648-12.288-27.648-27.648 0-15.36 12.288-27.648 27.648-27.648H158.72c41.984 0 77.312 31.744 82.432 73.216l4.096 37.888z m6.144 55.296l41.472 361.984c1.536 13.824 13.312 24.576 27.648 24.576h486.4c13.312 0 24.576-9.728 27.136-22.528l59.904-331.264c2.56-14.848-7.168-29.184-22.528-32.256-1.536-0.512-3.072-0.512-5.12-0.512H251.392z" p-id="1472"></path></svg>